<svg version="1.2" xmlns="http://www.w3.org/2000/svg" viewBox="0 0 996 1024" width="996" height="1024">
	<style>
		.s0 { fill: #2a2a2a } 
		.s1 { fill: #1e1e1e } 
		.s2 { fill: #953e18 } 
		.s3 { fill: #e56929 } 
		.s4 { fill: #ad5a30 } 
	</style>
	<path id="Layer 2" class="s0" d="m284.9 513.72l14.03 58.23c0 0 180.79-34.2 159.53 158.66 0.01-0.02 57.21 13.07 57.21 13.07l143.68-321.14-45.15-46.19zm232.01-331.14c0 0-260.96-24.17-369.48 222.67-113.47 258.12 118.21 441.71 128.29 441.72 0 0 284.87 204.95 521.11-106.79-0.38-0.06 82.28-110 42.17-286.44 0.29 1.42 65.25-21.05 65.25-21.05 0 0 56.35 193.21-49.33 344.27 0.32 0.47-112.19 202.39-360.44 205.61-248.26 3.22-444.68-188.5-446.49-430.81-1.8-242.31 187.88-433.78 442.86-439.45 0.29-0.09 86.46 1.85 145.53 27.17 0.31 0.5-25.12 64.22-25.12 64.22 0 0-66.37-20.95-94.35-21.12z"/>
	<path id="Layer 7" class="s1" d="m285 514l14 58c0 0 179.46-34.61 159 158 0.01 0.08 58 14 58 14l11-25-39-11c0 0 18.5-180.36-168-164-0.38 0.16-10-41-10-41zm512 128"/>
	<path id="Layer 3" class="s2" d="m763.83 83.7l-108.83 206.27h30.2l103.17-192.67 102.38 193.84h30.21l-108.3-207.86c0 0 15.38-12.55 15.38-30.21 0-17.67-12.67-40.07-40.07-40.07-27.41 0-38.33 22.3-38.33 38.33 0.02 0.01-4 14.17 14.19 32.37z"/>
	<path id="Layer 4" class="s3" d="m630.62 259.78l97.55-1.16 220.64 1.16c0 0 5.53 119.61-161.42 119.61-166.95 0-156.77-127.3-156.77-119.61z"/>
	<path id="Layer 5" class="s4" d="m630.32 259.78l90.8-0.44c0 0 9.08 107.47 132.47 111.92 0.18 0-15.74 7.85-62.71 9.29-63.15 1.95-155.34-21.82-160.56-120.77z"/>
</svg>